<svg xmlns="http://www.w3.org/2000/svg" viewBox="0 0 4013 717" width="4013" height="717"><path d="M350.4 88L350.4 88Q406.4 88 442.4 103.2Q478.4 118.4 505.6 140L505.6 140Q514.4 147.2 521.6 147.2L521.6 147.2Q536.8 147.2 541.6 99.2L541.6 99.2L560 99.2Q558.4 131.2 557.6 177.2Q556.8 223.2 556.8 299.2L556.8 299.2L538.4 299.2Q532.8 241.6 518.8 202.8Q504.8 164 464.8 136.8L464.8 136.8Q448 125.6 425.6 119.2Q403.2 112.8 382.4 112.8L382.4 112.8Q336 112.8 305.6 138Q275.2 163.2 257.2 203.6Q239.2 244 231.6 291.6Q224 339.2 224 384L224 384Q224 528 259.2 594.4Q294.4 660.8 352.8 660.8L352.8 660.8Q365.6 660.8 375.2 658.4Q384.8 656 392 651.2L392 651.2Q400.8 644.8 404.8 635.2Q408.8 625.6 408.8 611.2L408.8 611.2L408.8 531.2Q408.8 492 402.8 472.8Q396.8 453.6 379.2 446.4Q361.6 439.2 328 438.4L328 438.4L328 422.4Q346.4 423.2 372.8 423.6Q399.2 424 428 424.4Q456.8 424.8 480.8 424.8L480.8 424.8Q519.2 424.8 551.6 424Q584 423.2 604 422.4L604 422.4L604 438.4Q590.4 439.2 583.2 444Q576 448.8 573.6 463.2Q571.2 477.6 571.2 507.2L571.2 507.2L571.2 665.6L555.2 665.6Q554.4 652 548.8 636Q543.2 620 530.4 620L530.4 620Q524 620 512.4 623.2Q500.8 626.4 476 638.4L476 638.4Q444.8 653.6 410 665.2Q375.2 676.8 340.8 676.8L340.8 676.8Q240.8 676.8 173.6 642.4Q106.4 608 73.2 543.2Q40 478.4 40 387.2L40 387.2Q40 297.6 79.6 230.4Q119.2 163.2 189.2 125.6Q259.2 88 350.4 88" fill="black" fill-rule="evenodd"/><path d="M740.8 671.2L740.8 671.2Q703.2 671.2 679.2 656.8Q655.2 642.4 644.4 619.2Q633.6 596 633.6 570.4L633.6 570.4Q633.6 536.8 648.8 515.6Q664 494.4 688.4 481.2Q712.8 468 740 459.2Q767.2 450.4 791.6 442Q816 433.6 831.2 422Q846.4 410.4 846.4 392L846.4 392L846.4 320.8Q846.4 308 842 292.8Q837.6 277.6 825.6 266.4Q813.6 255.2 789.6 255.2L789.6 255.2Q776.8 255.2 765.2 258.8Q753.6 262.4 744.8 268.8L744.8 268.8Q772.8 279.2 785.6 298Q798.4 316.8 798.4 339.2L798.4 339.2Q798.4 371.2 776 389.6Q753.6 408 723.2 408L723.2 408Q691.2 408 673.6 388Q656 368 656 338.4L656 338.4Q656 313.6 668.4 296.4Q680.8 279.2 705.6 264.8L705.6 264.8Q729.6 251.2 763.2 245.2Q796.8 239.2 833.6 239.2L833.6 239.2Q872.8 239.2 906.4 246.8Q940 254.4 964 279.2L964 279.2Q980.8 296.8 985.6 323.2Q990.4 349.6 990.4 391.2L990.4 391.2L990.4 605.6Q990.4 625.6 993.2 632.8Q996 640 1003.2 640L1003.2 640Q1009.6 640 1015.6 636Q1021.6 632 1027.2 628L1027.2 628L1035.2 641.6Q1017.6 656.8 991.6 664Q965.6 671.2 936.8 671.2L936.8 671.2Q902.4 671.2 883.6 662.8Q864.8 654.4 857.2 640.4Q849.6 626.4 848.8 610.4L848.8 610.4Q832 636.8 806.8 654Q781.6 671.2 740.8 671.2M816.8 607.2L816.8 607.2Q825.6 607.2 832.4 604.4Q839.2 601.6 846.4 593.6L846.4 593.6L846.4 424.8Q840.8 435.2 831.6 445.2Q822.4 455.2 812.8 465.6Q803.2 476 794.8 488Q786.4 500 781.2 515.6Q776 531.2 776 552L776 552Q776 582.4 787.6 594.8Q799.2 607.2 816.8 607.2" fill="black" fill-rule="evenodd"/><path d="M1349.6 239.2L1349.6 239.2Q1378.4 239.2 1394.4 251.6Q1410.4 264 1416.8 282.8Q1423.2 301.6 1423.2 320L1423.2 320Q1423.2 356 1402.8 377.2Q1382.4 398.4 1349.6 398.4L1349.6 398.4Q1314.4 398.4 1296.4 382.4Q1278.4 366.4 1278.4 340.8L1278.4 340.8Q1278.4 313.6 1290 296Q1301.6 278.4 1319.2 266.4L1319.2 266.4Q1304.8 266.4 1293.6 272L1293.6 272Q1284 276 1275.2 283.2Q1266.4 290.4 1260 299.6Q1253.6 308.8 1250 320Q1246.4 331.2 1246.4 343.2L1246.4 343.2L1246.4 583.2Q1246.4 621.6 1262.4 635.2Q1278.4 648.8 1315.2 648.8L1315.2 648.8L1315.2 665.6Q1296.8 664.8 1260.4 663.6Q1224 662.4 1185.6 662.4L1185.6 662.4Q1149.6 662.4 1112.8 663.6Q1076 664.8 1057.6 665.6L1057.6 665.6L1057.6 648.8Q1082.4 648.8 1092.4 636.8Q1102.4 624.8 1102.4 591.2L1102.4 591.2L1102.4 337.6Q1102.4 301.6 1092.8 284.4Q1083.2 267.2 1057.6 267.2L1057.6 267.2L1057.6 250.4Q1083.2 252.8 1107.2 252.8L1107.2 252.8Q1147.2 252.8 1182 250Q1216.8 247.2 1246.4 241.6L1246.4 241.6L1246.4 299.2Q1256.8 278.4 1272 265.2Q1287.2 252 1306.8 245.6Q1326.4 239.2 1349.6 239.2" fill="black" fill-rule="evenodd"/><path d="M1855.2 40L1855.2 40L1855.2 577.6Q1855.2 613.6 1865.2 630.8Q1875.2 648 1900 648L1900 648L1900 664.8Q1875.2 662.4 1850.4 662.4L1850.4 662.4Q1810.4 662.4 1776 664.8Q1741.6 667.2 1711.2 673.6L1711.2 673.6L1711.2 616.8Q1695.2 647.2 1672 662Q1648.8 676.8 1613.6 676.8L1613.6 676.8Q1568 676.8 1530.8 654Q1493.6 631.2 1472 582.4Q1450.4 533.6 1450.4 455.2L1450.4 455.2Q1450.4 382.4 1472.4 334.8Q1494.4 287.2 1534.4 263.2Q1574.4 239.2 1628 239.2L1628 239.2Q1663.2 239.2 1687.2 247.2L1687.2 247.2Q1700 252 1711.2 259.2L1711.2 259.2L1711.2 136Q1711.2 100 1701.6 82.8Q1692 65.6 1666.4 65.6L1666.4 65.6L1666.4 48.8Q1692 51.2 1716 51.2L1716 51.2Q1756 51.2 1790.8 48.4Q1825.6 45.6 1855.2 40M1711.2 577.6L1711.2 276Q1704.8 272.8 1697.6 269.6L1697.6 269.6Q1684.8 265.6 1673.6 265.6L1673.6 265.6Q1636.8 265.6 1618.4 312.8Q1600 360 1600 457.6L1600 457.6Q1600 528 1607.2 566.8Q1614.4 605.6 1626.8 620.4Q1639.2 635.2 1653.6 635.2L1653.6 635.2Q1676 635.2 1693.6 618.8Q1711.2 602.4 1711.2 577.6L1711.2 577.6" fill="black" fill-rule="evenodd"/><path d="M2041.6 40L2041.6 40Q2083.2 40 2106 57.2Q2128.8 74.4 2128.8 108.8L2128.8 108.8Q2128.8 143.2 2106 160.4Q2083.2 177.6 2041.6 177.6L2041.6 177.6Q2000 177.6 1977.2 160.4Q1954.4 143.2 1954.4 108.8L1954.4 108.8Q1954.4 74.4 1977.2 57.2Q2000 40 2041.6 40M2118.4 241.6L2118.4 241.6L2118.4 591.2Q2118.4 624.8 2128.4 636.8Q2138.4 648.8 2163.2 648.8L2163.2 648.8L2163.2 665.6Q2147.2 664.8 2115.2 663.6Q2083.2 662.4 2049.6 662.4L2049.6 662.4Q2016 662.4 1981.6 663.6Q1947.2 664.8 1929.6 665.6L1929.6 665.6L1929.6 648.8Q1954.4 648.8 1964.4 636.8Q1974.4 624.8 1974.4 591.2L1974.4 591.2L1974.4 337.6Q1974.4 301.6 1964.8 284.4Q1955.2 267.2 1929.6 267.2L1929.6 267.2L1929.6 250.4Q1955.2 252.8 1979.2 252.8L1979.2 252.8Q2019.2 252.8 2054 250Q2088.8 247.2 2118.4 241.6" fill="black" fill-rule="evenodd"/><path d="M2509.6 239.2L2509.6 239.2Q2546.4 239.2 2567.6 248.4Q2588.8 257.6 2600 271.2L2600 271.2Q2612 285.6 2617.6 309.6Q2623.2 333.6 2623.2 374.4L2623.2 374.4L2623.2 591.2Q2623.2 624.8 2633.2 636.8Q2643.2 648.8 2668 648.8L2668 648.8L2668 665.6Q2652 664.8 2619.6 663.6Q2587.2 662.4 2556 662.4L2556 662.4Q2522.4 662.4 2490.4 663.6Q2458.4 664.8 2442.4 665.6L2442.4 665.6L2442.4 648.8Q2463.2 648.8 2471.2 636.8Q2479.2 624.8 2479.2 591.2L2479.2 591.2L2479.2 331.2Q2479.2 314.4 2475.2 303.2Q2471.2 292 2462.8 286.4Q2454.4 280.8 2440 280.8L2440 280.8Q2425.6 280.8 2412.4 288Q2399.2 295.2 2390.8 308.4Q2382.4 321.6 2382.4 338.4L2382.4 338.4L2382.4 591.2Q2382.4 624.8 2390.8 636.8Q2399.2 648.8 2419.2 648.8L2419.2 648.8L2419.2 665.6Q2404 664.8 2374.4 663.6Q2344.8 662.4 2313.6 662.4L2313.6 662.4Q2280 662.4 2245.6 663.6Q2211.2 664.8 2193.6 665.6L2193.6 665.6L2193.6 648.8Q2218.4 648.8 2228.4 636.8Q2238.4 624.8 2238.4 591.2L2238.4 591.2L2238.4 337.6Q2238.4 301.6 2228.8 284.4Q2219.2 267.2 2193.6 267.2L2193.6 267.2L2193.6 250.4Q2219.2 252.8 2243.2 252.8L2243.2 252.8Q2283.2 252.8 2318 250Q2352.8 247.2 2382.4 241.6L2382.4 241.6L2382.4 299.2Q2401.6 267.2 2434 253.2Q2466.4 239.2 2509.6 239.2" fill="black" fill-rule="evenodd"/><path d="M2907.2 239.2L2907.2 239.2Q2969.6 239.2 3015.6 260.4Q3061.6 281.6 3087.2 329.6Q3112.8 377.6 3112.8 458.4L3112.8 458.4Q3112.8 539.2 3087.2 587.2Q3061.6 635.2 3015.6 656Q2969.6 676.8 2907.2 676.8L2907.2 676.8Q2845.6 676.8 2799.2 656Q2752.8 635.2 2727.2 587.2Q2701.6 539.2 2701.6 458.4L2701.6 458.4Q2701.6 377.6 2727.2 329.6Q2752.8 281.6 2799.2 260.4Q2845.6 239.2 2907.2 239.2M2907.2 255.2L2907.2 255.2Q2883.2 255.2 2867.2 303.2Q2851.2 351.2 2851.2 458.4L2851.2 458.4Q2851.2 565.6 2867.2 613.2Q2883.2 660.8 2907.2 660.8L2907.2 660.8Q2931.2 660.8 2947.2 613.2Q2963.2 565.6 2963.2 458.4L2963.2 458.4Q2963.2 351.2 2947.2 303.2Q2931.2 255.2 2907.2 255.2" fill="black" fill-rule="evenodd"/><path d="M3554.4 250.4L3554.4 250.4L3554.4 267.2Q3539.2 272.8 3525.2 289.2Q3511.2 305.6 3497.6 344.8L3497.6 344.8L3389.6 665.6Q3370.4 664 3350.8 664Q3331.2 664 3312 665.6L3312 665.6L3172.8 312Q3160.8 281.6 3148 274.4Q3135.2 267.2 3126.4 267.2L3126.4 267.2L3126.4 250.4Q3158.4 252.8 3192.8 254Q3227.2 255.2 3268.8 255.2L3268.8 255.2Q3293.6 255.2 3321.2 253.6Q3348.8 252 3372.8 250.4L3372.8 250.4L3372.8 267.2Q3358.4 267.2 3346.8 268.4Q3335.2 269.6 3330 275.6Q3324.8 281.6 3328 297.6L3328 297.6L3415.2 540L3452 429.6Q3470.4 375.2 3467.6 340Q3464.8 304.8 3448.8 286.8Q3432.8 268.8 3408.8 267.2L3408.8 267.2L3408.8 250.4Q3420 251.2 3436 252Q3452 252.8 3467.6 253.2Q3483.2 253.6 3492.8 253.6L3492.8 253.6Q3507.2 253.6 3526.4 252.8Q3545.6 252 3554.4 250.4" fill="black" fill-rule="evenodd"/><path d="M3678.4 671.2L3678.4 671.2Q3640.8 671.2 3616.8 656.8Q3592.8 642.4 3582 619.2Q3571.2 596 3571.2 570.4L3571.2 570.4Q3571.2 536.8 3586.4 515.6Q3601.6 494.4 3626 481.2Q3650.4 468 3677.6 459.2Q3704.8 450.4 3729.2 442Q3753.6 433.6 3768.8 422Q3784 410.4 3784 392L3784 392L3784 320.8Q3784 308 3779.6 292.8Q3775.2 277.6 3763.2 266.4Q3751.2 255.2 3727.2 255.2L3727.2 255.2Q3714.4 255.2 3702.8 258.8Q3691.2 262.4 3682.4 268.8L3682.4 268.8Q3710.4 279.2 3723.2 298Q3736 316.8 3736 339.2L3736 339.2Q3736 371.2 3713.6 389.6Q3691.2 408 3660.8 408L3660.8 408Q3628.8 408 3611.2 388Q3593.6 368 3593.6 338.4L3593.6 338.4Q3593.6 313.6 3606 296.4Q3618.4 279.2 3643.2 264.8L3643.2 264.8Q3667.2 251.2 3700.8 245.2Q3734.4 239.2 3771.2 239.2L3771.2 239.2Q3810.4 239.2 3844 246.8Q3877.6 254.4 3901.6 279.2L3901.6 279.2Q3918.4 296.8 3923.2 323.2Q3928 349.6 3928 391.2L3928 391.2L3928 605.6Q3928 625.6 3930.8 632.8Q3933.6 640 3940.8 640L3940.8 640Q3947.2 640 3953.2 636Q3959.2 632 3964.8 628L3964.8 628L3972.8 641.6Q3955.2 656.8 3929.2 664Q3903.2 671.2 3874.4 671.2L3874.4 671.2Q3840 671.2 3821.2 662.8Q3802.4 654.4 3794.8 640.4Q3787.2 626.4 3786.4 610.4L3786.4 610.4Q3769.6 636.8 3744.4 654Q3719.2 671.2 3678.4 671.2M3754.4 607.2L3754.4 607.2Q3763.2 607.2 3770 604.4Q3776.8 601.6 3784 593.6L3784 593.6L3784 424.8Q3778.4 435.2 3769.2 445.2Q3760 455.2 3750.4 465.6Q3740.8 476 3732.4 488Q3724 500 3718.8 515.6Q3713.6 531.2 3713.6 552L3713.6 552Q3713.6 582.4 3725.2 594.8Q3736.8 607.2 3754.4 607.2" fill="black" fill-rule="evenodd"/></svg>